<svg width="42" height="42" viewBox="0 0 42 42" fill="none" xmlns="http://www.w3.org/2000/svg">
<g id="ant-design:linkedin-filled">
<path id="Vector" d="M35.7183 4.81104H6.25916C5.5507 4.81104 4.97833 5.38341 4.97833 6.09187V35.551C4.97833 36.2594 5.5507 36.8318 6.25916 36.8318H35.7183C36.4267 36.8318 36.9991 36.2594 36.9991 35.551V6.09187C36.9991 5.38341 36.4267 4.81104 35.7183 4.81104ZM14.4765 32.0967H9.72541V16.8148H14.4765V32.0967ZM12.103 14.7255C11.5583 14.7255 11.0259 14.564 10.573 14.2614C10.1202 13.9588 9.76722 13.5287 9.55879 13.0255C9.35036 12.5223 9.29583 11.9686 9.40208 11.4344C9.50834 10.9003 9.77061 10.4096 10.1557 10.0245C10.5409 9.63934 11.0315 9.37706 11.5657 9.27081C12.0999 9.16455 12.6536 9.21909 13.1568 9.42751C13.66 9.63594 14.0901 9.9889 14.3926 10.4418C14.6952 10.8946 14.8567 11.427 14.8567 11.9717C14.8527 13.4927 13.6199 14.7255 12.103 14.7255ZM32.264 32.0967H27.517V24.6639C27.517 22.8908 27.4849 20.6133 25.0474 20.6133C22.5778 20.6133 22.1975 22.5425 22.1975 24.5358V32.0967H17.4544V16.8148H22.0094V18.9042H22.0734C22.7058 17.7034 24.2548 16.4346 26.5683 16.4346C31.3795 16.4346 32.264 19.6006 32.264 23.7153V32.0967Z" fill="#EF2779"/>
</g>
</svg>
