<svg width="26" height="33" viewBox="0 0 26 33" fill="none" xmlns="http://www.w3.org/2000/svg">
<g id="bx:bx-map" clip-path="url(#clip0_3_291)">
<path id="Vector" d="M12.9998 19.4814C16.4927 19.4814 19.3332 16.6409 19.3332 13.148C19.3332 9.6552 16.4927 6.8147 12.9998 6.8147C9.507 6.8147 6.6665 9.6552 6.6665 13.148C6.6665 16.6409 9.507 19.4814 12.9998 19.4814ZM12.9998 9.98136C14.7463 9.98136 16.1665 11.4016 16.1665 13.148C16.1665 14.8944 14.7463 16.3147 12.9998 16.3147C11.2534 16.3147 9.83317 14.8944 9.83317 13.148C9.83317 11.4016 11.2534 9.98136 12.9998 9.98136Z" fill="#EF2779"/>
<path id="Vector_2" d="M11.7487 31.8536C12.0166 32.045 12.3377 32.1479 12.667 32.1479C12.9963 32.1479 13.3173 32.045 13.5853 31.8536C14.0667 31.5132 25.3796 23.3448 25.3337 13.1481C25.3337 6.16403 19.6511 0.481445 12.667 0.481445C5.68291 0.481445 0.000322499 6.16403 0.000322499 13.1402C-0.0455942 23.3448 11.2673 31.5132 11.7487 31.8536ZM12.667 3.64811C17.9062 3.64811 22.167 7.90886 22.167 13.156C22.2002 20.1829 15.2193 26.4924 12.667 28.5619C10.1162 26.4909 3.13374 20.1797 3.16699 13.1481C3.16699 7.90886 7.42774 3.64811 12.667 3.64811Z" fill="#EF2779"/>
</g>
<defs>
<clipPath id="clip0_3_291">
<rect width="26" height="32" fill="white" transform="translate(0 0.314697)"/>
</clipPath>
</defs>
</svg>
