<svg width="27" height="23" viewBox="0 0 27 23" fill="none" xmlns="http://www.w3.org/2000/svg">
<g id="ant-design:mail-outlined">
<path id="Vector" d="M25.3125 1.0022H0.9375C0.418945 1.0022 0 1.42114 0 1.9397V20.6897C0 21.2083 0.418945 21.6272 0.9375 21.6272H25.3125C25.8311 21.6272 26.25 21.2083 26.25 20.6897V1.9397C26.25 1.42114 25.8311 1.0022 25.3125 1.0022ZM24.1406 4.24829V19.5178H2.10938V4.24829L1.30078 3.61841L2.45215 2.13892L3.70605 3.1145H22.5469L23.8008 2.13892L24.9521 3.61841L24.1406 4.24829ZM22.5469 3.11157L13.125 10.4358L3.70312 3.11157L2.44922 2.13599L1.29785 3.61548L2.10645 4.24536L12.1143 12.0266C12.4021 12.2502 12.7561 12.3716 13.1206 12.3716C13.4851 12.3716 13.8391 12.2502 14.127 12.0266L24.1406 4.24829L24.9492 3.61841L23.7979 2.13892L22.5469 3.11157Z" fill="#EF2779"/>
</g>
</svg>
