<svg width="42" height="42" viewBox="0 0 42 42" fill="none" xmlns="http://www.w3.org/2000/svg">
<g id="ant-design:facebook-filled">
<path id="Vector" d="M35.7304 4.81104H6.27131C5.56285 4.81104 4.99048 5.38341 4.99048 6.09187V35.551C4.99048 36.2594 5.56285 36.8318 6.27131 36.8318H35.7304C36.4389 36.8318 37.0113 36.2594 37.0113 35.551V6.09187C37.0113 5.38341 36.4389 4.81104 35.7304 4.81104ZM32.032 14.1571H29.4744C27.4691 14.1571 27.0808 15.1097 27.0808 16.5106V19.5966H31.8679L31.2435 24.4278H27.0808V36.8318H22.0896V24.4318H17.9149V19.5966H22.0896V16.0343C22.0896 11.8996 24.6152 9.64617 28.3056 9.64617C30.0748 9.64617 31.5917 9.77826 32.036 9.8383V14.1571H32.032Z" fill="#EF2779"/>
</g>
</svg>
