<svg width="42" height="42" viewBox="0 0 42 42" fill="none" xmlns="http://www.w3.org/2000/svg">
<g id="ant-design:twitter-outlined">
<path id="Vector" d="M37.6651 10.5068C36.4403 11.0352 35.1074 11.4154 33.7346 11.5635C35.1599 10.7167 36.2273 9.37889 36.7365 7.80107C35.399 8.59674 33.9337 9.15468 32.4057 9.45014C31.7671 8.7674 30.9947 8.2235 30.1366 7.85233C29.2786 7.48116 28.3533 7.29068 27.4185 7.29274C23.636 7.29274 20.594 10.3587 20.594 14.1212C20.594 14.6495 20.6581 15.1779 20.7621 15.6862C15.0985 15.39 10.0472 12.6842 6.68901 8.54155C6.07711 9.58669 5.75646 10.7767 5.76041 11.9878C5.76041 14.3573 6.96519 16.4467 8.80238 17.6755C7.71969 17.6328 6.66236 17.3352 5.71638 16.8069V16.891C5.71638 20.2091 8.0619 22.9589 11.1879 23.5913C10.601 23.7438 9.99718 23.8218 9.39076 23.8235C8.94647 23.8235 8.5262 23.7794 8.10192 23.7194C8.96649 26.4252 11.4841 28.3904 14.4821 28.4545C12.1365 30.2917 9.19864 31.3724 6.00857 31.3724C5.4362 31.3724 4.90785 31.3524 4.3595 31.2883C7.38546 33.2296 10.9758 34.3503 14.8423 34.3503C27.3944 34.3503 34.2629 23.9516 34.2629 14.9257C34.2629 14.6295 34.2629 14.3333 34.2429 14.0371C35.5717 13.0645 36.7365 11.8597 37.6651 10.5068Z" fill="#EF2779"/>
</g>
</svg>
